<?xml version="1.0" standalone="no"?>
<!DOCTYPE svg PUBLIC "-//W3C//DTD SVG 20010904//EN"
 "http://www.w3.org/TR/2001/REC-SVG-20010904/DTD/svg10.dtd">
<svg version="1.0" xmlns="http://www.w3.org/2000/svg"
 width="500.000000pt" height="500.000000pt" viewBox="0 0 500.000000 500.000000"
 preserveAspectRatio="xMidYMid meet">

<g transform="translate(0.000000,500.000000) scale(0.100000,-0.100000)"
fill="#fff" stroke="none">
<path d="M2478 3879 c-119 -17 -226 -51 -333 -104 -357 -179 -606 -518 -681
-928 -23 -126 -23 -343 1 -467 62 -329 234 -616 480 -801 218 -165 436 -239
705 -239 245 0 431 57 645 195 132 85 288 249 362 380 148 261 193 423 193
700 0 275 -45 438 -192 700 -45 79 -85 129 -203 251 -68 71 -252 193 -361 238
-171 72 -425 103 -616 75z m-282 -740 c49 -23 69 -40 97 -82 61 -89 94 -249
104 -504 3 -90 10 -163 15 -163 4 0 8 9 8 19 0 11 5 23 10 26 6 3 10 16 10 28
0 13 6 32 14 43 8 11 46 85 86 164 148 299 166 333 198 371 26 30 41 39 66 39
74 0 108 -64 81 -156 -16 -54 -15 -58 9 -132 35 -110 62 -205 81 -297 25 -117
30 -120 55 -34 12 40 26 79 30 84 4 6 11 26 15 45 4 19 16 51 26 70 11 19 19
42 19 50 0 8 9 32 19 52 11 19 18 38 15 41 -3 3 4 23 15 46 25 49 26 79 5 110
-15 21 -22 23 -65 17 -49 -7 -49 -7 -49 22 0 102 182 189 316 152 31 -9 55
-25 79 -52 67 -79 70 -190 9 -401 -45 -158 -72 -223 -195 -471 -101 -203 -157
-288 -200 -301 -27 -9 -66 18 -84 58 -8 18 -55 199 -105 402 -50 204 -98 394
-106 424 l-16 54 -49 -119 c-27 -65 -53 -127 -59 -137 -6 -11 -26 -58 -45
-105 -43 -113 -220 -485 -257 -539 -32 -47 -66 -62 -103 -45 -32 15 -50 53
-64 137 -22 125 -109 467 -146 575 -51 146 -83 203 -180 325 -18 22 -35 45
-39 52 -16 28 47 105 112 138 82 41 175 39 268 -6z"/>
</g>
</svg>
